<svg class="-translate-x-1" viewBox="0 0 50 50" version="1.1" xmlns="http://www.w3.org/2000/svg" xml:space="preserve"><g transform="matrix(0.0653851,0,0,0.0653851,-0.13077,1.65751)"><path d="M701.8,204.6L657.3,204.6C645.2,204.6 622.6,220 614.3,227.7C615.5,223.4 615.9,208.3 615.9,203.7L615.9,190.7C615.9,174.9 608.4,160.9 596.7,151.9C601.2,144.3 604.3,133.5 604.3,118.2L604.3,87.3C604.3,44.8 575.3,19.5 526.7,19.5L241.9,19.5C193.3,19.5 164.3,44.9 164.3,87.3L164.3,118C164.3,133.4 167.4,144.1 171.9,151.7C160.3,160.7 152.7,174.7 152.7,190.5L152.7,203.5C152.7,208.1 147.3,223.3 148.5,227.5C139.6,216.2 124.2,204.4 112.1,204.4L67,204.4C41.3,204.4 20.5,225.3 20.5,250.9L20.5,563.1C20.5,588.8 41.4,609.6 67,609.6L123.7,609.6C121.2,616.8 119.7,624.1 119.7,631.4C119.7,674.6 153.6,694.3 185.2,694.3L583.8,694.3C615.3,694.3 649.3,674.6 649.3,631.4C649.3,624.1 647.7,616.8 645.3,609.6L702,609.6C727.7,609.6 748.5,588.7 748.5,563.1L748.5,251.1C748.3,225.4 727.4,204.6 701.8,204.6Z"></path></g><g transform="matrix(0.0653851,0,0,0.0653851,-0.13077,1.65751)" class="fill-white"><path d="M717.8,196.8L658.7,196.8C645.9,196.8 634.4,201.8 625.7,209.9C627,205.4 627.7,200.7 627.7,195.8L627.7,182.2C627.7,165.6 619.8,150.8 607.6,141.4C612.3,133.4 615.6,122.1 615.6,106L615.6,73.7C615.6,29.1 585.1,2.4 534.1,2.4L234.7,2.4C183.7,2.4 153.2,29 153.2,73.7L153.2,106C153.2,122.1 156.5,133.5 161.2,141.4C149,150.8 141.1,165.6 141.1,182.2L141.1,195.8C141.1,200.7 141.8,205.4 143.1,209.8C134.4,201.8 122.9,196.7 110.1,196.7L50.9,196.7C24,196.8 2,218.8 2,245.7L2,573.7C2,600.7 23.9,622.6 50.9,622.6L110.4,622.6C107.8,630.2 106.1,637.9 106.1,645.5C106.1,690.9 141.8,711.6 174.9,711.6L593.7,711.6C626.8,711.6 662.5,690.9 662.5,645.5C662.5,637.9 660.8,630.2 658.3,622.6L717.8,622.6C744.8,622.6 766.7,600.7 766.7,573.7L766.7,245.7C766.7,218.8 744.8,196.8 717.8,196.8ZM180.6,73.7C180.6,44.6 198.8,29.8 234.7,29.8L534,29.8C569.9,29.8 588.1,44.6 588.1,73.7L588.1,106C588.1,113.6 587.1,126.2 580.9,130.9C579.3,130.7 577.7,130.7 576,130.7L192.7,130.7C191,130.7 189.4,130.8 187.8,130.9C181.6,126.3 180.6,113.6 180.6,106L180.6,73.7ZM168.4,182.2C168.4,168.8 179.3,157.9 192.7,157.9L576.1,157.9C589.5,157.9 600.4,168.8 600.4,182.2L600.4,195.8C600.4,209.2 589.5,220.1 576.1,220.1C575.6,220.1 575.2,220.2 574.7,220.2C573.7,220.1 572.7,220.1 571.8,220.1C564.2,220.1 558.1,226.2 558.1,233.8C558.1,241.4 564.2,247.5 571.8,247.5C581.7,247.5 609.9,254.9 609.9,287.7L609.9,549C596.2,538 576.2,529.2 544.5,529.2L224.4,529.2C192.7,529.2 172.7,538 159,549L159,287.7C159,254.9 187.2,247.5 197,247.5C204.6,247.5 210.7,241.4 210.7,233.8C210.7,226.2 204.6,220.1 197,220.1C196,220.1 195,220.2 194.1,220.2C193.6,220.2 193.2,220.1 192.7,220.1C179.3,220.1 168.4,209.2 168.4,195.8L168.4,182.2ZM131.6,573.7C131.6,585.6 121.9,595.2 110.1,595.2L50.9,595.2C39,595.2 29.4,585.5 29.4,573.7L29.4,245.7C29.4,233.8 39.1,224.2 50.9,224.2L110,224.2C121.9,224.2 131.5,233.9 131.5,245.7L131.5,573.7L131.6,573.7ZM593.8,684.3L175,684.3C168.1,684.3 133.6,682.4 133.6,645.5C133.6,630.8 144.7,612.1 156.7,594.1L158,592.2C169.6,574.7 181.6,556.6 224.4,556.6L544.5,556.6C587.3,556.6 599.3,574.7 610.9,592.2L612.2,594.1C624.2,612.1 635.3,630.8 635.3,645.5C635.2,682.4 600.7,684.3 593.8,684.3ZM739.4,573.7C739.4,585.6 729.7,595.2 717.9,595.2L658.8,595.2C646.9,595.2 637.3,585.5 637.3,573.7L637.3,245.7C637.3,233.8 647,224.2 658.8,224.2L717.9,224.2C729.8,224.2 739.4,233.9 739.4,245.7L739.4,573.7Z"></path></g><g transform="matrix(1,0,0,1,25,25)"><text text-anchor="middle" dominant-baseline="middle" class="fill-white" font-size="10">A13</text></g></svg>